<svg width="30" height="30" viewBox="0 0 30 30" fill="none" xmlns="http://www.w3.org/2000/svg">
<g clip-path="url(#clip0)">
<path fill-rule="evenodd" clip-rule="evenodd" d="M28.4729 3.15769C29.0117 2.6189 29.1653 1.84688 28.8737 1.14306C28.5821 0.439248 27.9277 0.00185306 27.1658 0.00185306C26.6382 0.00185306 26.1344 0.227989 25.784 0.622583L19.6097 7.57123C19.5577 7.55727 19.5056 7.54468 19.4531 7.53255L21.6687 2.54062C21.9704 1.86084 21.8395 1.10392 21.327 0.565133C20.8145 0.0263435 20.0652 -0.142343 19.3712 0.124992C18.8905 0.309929 18.5113 0.692621 18.3302 1.17488L16.3088 6.56529C15.0909 5.60719 13.5839 5.07732 11.9934 5.07732C8.33449 5.07732 5.32331 7.90196 5.02462 11.4849H4.64101C4.63567 11.4849 4.63041 11.4854 4.62514 11.4859C4.6216 11.4862 4.61805 11.4865 4.61446 11.4867C4.60279 11.4872 4.59111 11.4876 4.57944 11.4888C4.56022 11.4908 4.54145 11.4943 4.52291 11.4982L4.52016 11.4986C4.36475 11.5316 4.22719 11.6254 4.14205 11.7634C4.12213 11.7962 4.10657 11.8307 4.0933 11.8658L1.05854 17.9012C0.913203 18.1902 1.0297 18.5423 1.31878 18.6876C1.40324 18.7302 1.49319 18.7503 1.58154 18.7503C1.796 18.7503 2.00268 18.632 2.10545 18.4274L4.32996 14.0033L6.39791 28.4906C6.52059 29.3512 7.26881 30.0001 8.13788 30.0001H19.8981C20.7674 30.0001 21.5154 29.3512 21.6383 28.4906L23.7049 14.0113L25.9255 18.4274C26.0282 18.632 26.2349 18.7503 26.4494 18.7503C26.538 18.7503 26.6277 18.7302 26.7121 18.6876C27.0012 18.5423 27.1177 18.19 26.9724 17.9009L23.9392 11.869C23.915 11.803 23.8797 11.741 23.8326 11.6868C23.7213 11.5586 23.56 11.4849 23.3901 11.4849H23.0223C22.9257 10.7197 22.6438 10.0123 22.2217 9.4087L28.4729 3.15769ZM26.66 1.40101C26.7884 1.25659 26.9726 1.17373 27.1658 1.17373C27.5853 1.17373 27.7504 1.49348 27.7911 1.59144C27.8316 1.6894 27.941 2.03227 27.6444 2.3289L21.4348 8.53849C21.2226 8.35607 20.9942 8.19242 20.7516 8.05005L26.66 1.40101ZM19.4275 1.58641C19.4909 1.41749 19.6239 1.28337 19.7923 1.21836C20.1583 1.0776 20.4096 1.30076 20.4778 1.37263C20.5463 1.4445 20.7566 1.7068 20.5975 2.065L18.2227 7.41559C17.913 7.42749 17.6111 7.4696 17.3195 7.53918C17.2909 7.50531 17.262 7.47144 17.2327 7.43825L19.4275 1.58641ZM11.9934 6.2492C13.5747 6.2492 15.0575 6.87817 16.1488 7.99329C15.8691 8.14847 15.6075 8.3318 15.3664 8.53917C14.4617 7.67468 13.2566 7.18671 11.9934 7.18671C9.49858 7.18671 7.43612 9.0672 7.14567 11.4849H6.20107C6.49587 8.54901 8.98108 6.2492 11.9934 6.2492ZM8.32762 11.4849C8.6096 9.7154 10.1459 8.35836 11.9934 8.35836C12.9641 8.35836 13.889 8.73853 14.5795 9.40915C14.3921 9.67763 14.2314 9.96603 14.1032 10.2714C13.594 9.67512 12.8373 9.29586 11.9934 9.29586C10.6643 9.29586 9.551 10.2352 9.28137 11.4849H8.32762ZM11.9934 10.4677C12.6707 10.4677 13.2507 10.89 13.485 11.4849H10.5018C10.7361 10.89 11.3161 10.4677 11.9934 10.4677ZM17.1536 11.4849C17.3742 11.0171 17.8503 10.6923 18.401 10.6923C18.9517 10.6923 19.4277 11.0171 19.6484 11.4849H17.1536ZM20.8825 11.4849C20.617 10.3602 19.6056 9.52039 18.401 9.52039C17.1964 9.52039 16.1849 10.3602 15.9194 11.4849H14.9634C15.2431 9.83991 16.6775 8.58312 18.401 8.58312C18.4156 8.58312 18.4667 8.58543 18.5185 8.58777C18.5771 8.59042 18.6365 8.59311 18.6443 8.5925C20.2579 8.70443 21.5721 9.91796 21.8386 11.4849H20.8825ZM11.6814 17.5784H8.06898L5.59179 12.6568H22.4346L19.9599 17.5784H16.3687H11.6814ZM19.8981 28.8282C20.1878 28.8282 20.4373 28.6119 20.4783 28.3252L22.3057 15.5215L20.8445 18.4276C20.7449 18.6253 20.5426 18.7503 20.3211 18.7503H16.3687H11.6814H7.70804C7.48671 18.7503 7.28414 18.6256 7.18481 18.4278L5.7337 15.545L7.55789 28.3252C7.59886 28.6119 7.84811 28.8282 8.13788 28.8282H19.8981Z" fill="black"/>
</g>
<defs>
<clipPath id="clip0">
<rect width="30" height="30" fill="white"/>
</clipPath>
</defs>
</svg>
