<svg width="30" height="30" viewBox="0 0 30 30" fill="none" xmlns="http://www.w3.org/2000/svg">
<path d="M26.8495 29.248C27.1452 29.248 27.3954 29.0299 27.4352 28.737L29.5995 13.2752C29.7021 12.5233 28.5316 12.358 28.429 13.1113L26.3339 28.0661H20.3482C21.2886 27.3195 21.8487 26.2403 21.9588 24.8874C23.1201 24.5997 24.0174 23.6348 24.2046 22.4375C25.3337 21.6602 26.0068 20.3826 26.0068 19.0118C26.0068 16.7196 24.1419 14.8547 21.8496 14.8547C21.0801 14.8547 20.3363 15.0645 19.6851 15.4626C18.3995 14.7803 16.9646 14.7345 15.5444 14.7345L14.977 10.9641H28.7296L28.429 13.1113C28.3237 13.8627 29.4942 14.0279 29.5995 13.2752L29.9943 10.4549C30.0436 10.1042 29.7629 9.78198 29.4091 9.78198H28.5087V4.21308C28.5087 3.8867 28.2441 3.62211 27.9177 3.62211H26.0141V1.34978C26.0141 0.904841 25.5055 0.61256 25.1206 0.841899L22.6255 2.32756C22.4466 2.43399 22.3369 2.62694 22.3369 2.83522V6.01323H21.0243V2.83522C21.0243 2.50884 20.7597 2.24425 20.4331 2.24425H17.9385C17.6119 2.24425 17.3473 2.50884 17.3473 2.83522V4.40717H15.4437C15.1171 4.40717 14.8525 4.67176 14.8525 4.99814V9.78198H14.2902C13.9338 9.78198 13.6527 10.1086 13.7058 10.4611L14.3492 14.7345H7.91469C6.30589 14.7345 4.9468 15.1103 3.9839 15.821C2.9766 16.5646 2.39409 17.6761 2.28171 19.0551C0.972975 19.3796 3.8147e-06 20.5636 3.8147e-06 21.9712C3.8147e-06 23.3789 0.973204 24.5631 2.28217 24.8874C2.5051 27.6287 4.57418 29.248 7.91447 29.248H26.8495ZM16.3263 28.0661H7.91469C6.35327 28.0661 3.80331 27.6477 3.47807 24.9758H9.55279C10.3118 24.9758 10.3129 23.7936 9.55279 23.7936H3.00452C1.99973 23.7936 1.18217 22.976 1.18217 21.9712C1.18217 20.9662 1.99973 20.1487 3.00452 20.1487H7.46288L9.98469 23.7936H9.55279C8.79405 23.7936 8.79291 24.9758 9.55279 24.9758H10.8025L11.6342 26.1781C11.8631 26.5086 12.3765 26.5104 12.6065 26.1781L13.4383 24.9758H20.7627C20.4377 27.6477 17.8875 28.0661 16.3263 28.0661ZM12.1204 24.803L8.90025 20.1487H15.3407L12.1204 24.803ZM21.2362 23.7936H14.2563L16.7781 20.1487H21.2362C22.2412 20.1487 23.0588 20.9662 23.0588 21.9712C23.0588 22.976 22.2412 23.7936 21.2362 23.7936ZM24.8246 19.0118C24.8246 19.7486 24.5523 20.448 24.0744 20.9864C23.7434 20.0351 22.9471 19.3 21.9593 19.0551C21.8666 17.9185 21.4548 16.9638 20.7489 16.2469C21.0964 16.1087 21.4685 16.0366 21.8496 16.0366C23.49 16.0366 24.8246 17.3714 24.8246 19.0118ZM3.47762 18.9665C3.75342 16.6949 5.88269 15.9167 7.91469 15.9167H16.3263C18.3597 15.9167 20.4876 16.6946 20.7631 18.9665H3.47762ZM16.0347 5.58911H17.3473V9.78198H16.0347V5.58911ZM18.5295 3.42642H19.8421V9.78198H18.5295V3.42642ZM21.0243 7.19517H22.3369V9.78198H21.0243V7.19517ZM24.8317 9.78198H23.5191V3.17122L24.8317 2.38959V9.78198ZM26.0139 9.78198V4.80405H27.3265V9.78198H26.0139Z" fill="black"/>
</svg>
