<svg width="30" height="30" viewBox="0 0 30 30" fill="none" xmlns="http://www.w3.org/2000/svg">
<path d="M23.9727 18.3927L22.2655 27.4418H8.05638L6.37094 18.48C6.6982 18.5454 7.03638 18.5836 7.38002 18.5836C9.43639 18.5836 11.1927 17.3291 11.9291 15.5454C12.8291 16.0799 13.8764 16.3909 15 16.3909C16.1236 16.3909 17.1764 16.0799 18.0764 15.5454C18.8128 17.3291 20.5691 18.5836 22.62 18.5836C23.0891 18.5836 23.5418 18.5181 23.9727 18.3927Z" stroke="black" stroke-miterlimit="10" stroke-linecap="round" stroke-linejoin="round"/>
<path d="M27.5454 13.6636C27.5454 15.9109 26.0346 17.8091 23.9727 18.3927C23.5418 18.5182 23.0891 18.5836 22.62 18.5836C20.5691 18.5836 18.8127 17.3291 18.0764 15.5455C17.1764 16.08 16.1236 16.3909 15 16.3909C13.8764 16.3909 12.8291 16.08 11.9291 15.5455C11.1927 17.3291 9.43639 18.5836 7.38001 18.5836C7.03637 18.5836 6.6982 18.5455 6.37094 18.48C4.13455 18.0164 2.45454 16.0364 2.45454 13.6636C2.45454 10.9418 4.6582 8.73819 7.38001 8.73819C8.00184 8.73819 8.60183 8.85271 9.14728 9.06545C9.6382 6.88909 11.3073 5.16543 13.4509 4.59271C13.6309 5.3018 14.2691 5.83091 15.0382 5.83091C15.7964 5.83091 16.4345 5.31272 16.62 4.61455C18.7364 5.20362 20.3727 6.91635 20.8473 9.07091C21.3982 8.85271 21.9927 8.73819 22.62 8.73819C25.3418 8.73819 27.5454 10.9418 27.5454 13.6636Z" stroke="black" stroke-miterlimit="10" stroke-linecap="round" stroke-linejoin="round"/>
<path d="M16.6745 4.19453C16.6745 4.34181 16.6582 4.4836 16.62 4.61454C16.4345 5.3127 15.7964 5.83089 15.0382 5.83089C14.2691 5.83089 13.6309 5.30178 13.4509 4.5927C13.4182 4.46726 13.4018 4.33089 13.4018 4.19453C13.4018 3.28909 14.1327 2.55817 15.0382 2.55817C15.9437 2.55817 16.6745 3.28909 16.6745 4.19453Z" stroke="black" stroke-miterlimit="10" stroke-linecap="round" stroke-linejoin="round"/>
<path d="M15 16.3909V21.9613" stroke="black" stroke-miterlimit="10" stroke-linecap="round" stroke-linejoin="round"/>
<path d="M20.4451 18.0272V21.9612" stroke="black" stroke-miterlimit="10" stroke-linecap="round" stroke-linejoin="round"/>
<path d="M9.80913 18.0272V21.9612" stroke="black" stroke-miterlimit="10" stroke-linecap="round" stroke-linejoin="round"/>
</svg>
