<svg width="30" height="30" viewBox="0 0 30 30" fill="none" xmlns="http://www.w3.org/2000/svg">
<path d="M14.4696 2.1581C14.4701 1.95242 14.4701 1.74673 14.4706 1.54104C14.4722 1.21216 14.63 0.890774 14.8878 0.69205C15.0344 0.57903 15.2118 0.505647 15.3949 0.481543L15.3976 0.481007L19.1695 0.00428521L19.2213 0C19.2388 0.000535643 19.2558 0.0010713 19.2732 0.00160694C19.2902 0.00374951 19.3076 0.00482084 19.3246 0.00803469C19.4956 0.037495 19.648 0.156943 19.719 0.317636C19.782 0.461724 19.7783 0.634736 19.7084 0.77561C19.6464 0.900951 19.5337 1.00004 19.4019 1.04397C19.3579 1.05897 19.3463 1.05897 19.3008 1.067C18.0435 1.22609 16.7862 1.38303 15.5294 1.54426V2.1581C16.712 2.22774 17.8836 2.52823 18.9429 3.06013C19.9847 3.58398 20.9191 4.33121 21.6242 5.2643C22.2749 6.12561 22.7206 7.14654 22.8762 8.21461C22.8937 8.33299 22.9075 8.45137 22.9175 8.57028H22.944C23.2256 8.57189 23.5046 8.69134 23.701 8.89595C23.889 9.092 23.9985 9.36142 23.9996 9.63835C24.0001 9.99777 24.0001 10.3572 23.9996 10.7161C23.9985 10.9898 23.8895 11.2619 23.701 11.4585C23.5046 11.6631 23.2251 11.7831 22.944 11.7841H22.8821C22.2134 17.5407 21.5522 23.2978 20.8741 29.0533C20.8434 29.3093 20.7185 29.5519 20.5289 29.7233C20.3384 29.8958 20.0848 29.9949 19.8264 29.996C16.6088 30.0013 13.3912 30.0013 10.1736 29.996C9.91205 29.9949 9.65106 29.8915 9.45836 29.7116C9.27466 29.5402 9.15502 29.3029 9.12538 29.0506L7.11794 11.7841H7.056C6.7606 11.7825 6.46891 11.6508 6.27197 11.4295C6.09992 11.2362 6.00146 10.9764 6.0004 10.7161C5.99987 10.3572 5.99987 9.99777 6.0004 9.63835C6.00146 9.37803 6.09992 9.11878 6.27197 8.92488C6.46943 8.70312 6.76113 8.57189 7.056 8.57028H7.083C7.15235 7.78182 7.37522 7.0062 7.73044 6.29916C8.35882 5.0495 9.38531 4.02053 10.5923 3.31295C11.7686 2.62358 13.109 2.23684 14.4696 2.1581ZM20.3214 24.6396H9.67488C9.84164 26.0681 10.0084 27.4967 10.1767 28.9247C13.3922 28.9247 16.6078 28.9408 19.8233 28.9247L20.3214 24.6396ZM9.54995 23.5683H20.4458L21.1933 17.1406C21.1933 17.1406 19.2718 16.4843 18 16.5C16.8018 16.5148 16.1813 16.9444 14.9992 17.1406C13.8355 17.3337 13.1796 17.4915 12 17.5C10.7445 17.5091 8.8051 17.1406 8.8051 17.1406C9.05285 19.2831 9.30113 21.4257 9.54995 23.5683ZM8.18412 11.7857C8.35035 13.2138 8.51552 14.6413 8.68069 16.0693C8.68069 16.0693 10.693 16.5178 12 16.5C13.1832 16.4839 13.832 16.2636 14.9992 16.0693C16.1758 15.8734 16.8074 15.5209 18 15.5C19.3144 15.4769 21.3177 16.0693 21.3177 16.0693L21.8159 11.7857C17.2721 11.7922 12.7279 11.7922 8.18412 11.7857ZM22.3405 9.63567C19.9445 9.61264 17.5479 9.61264 15.1514 9.61907C15.0545 9.64799 14.9497 9.64799 14.8523 9.62014C12.2546 9.62764 9.65688 9.64157 7.0597 9.64157C7.05706 9.99884 7.05864 10.3556 7.05917 10.7129C7.21217 10.7145 7.36463 10.7161 7.51762 10.7177C7.52398 10.7171 7.5298 10.7161 7.53615 10.7155C7.55362 10.7139 7.57109 10.7139 7.58856 10.7129H22.4114L22.43 10.7139C22.6004 10.7134 22.7704 10.7134 22.9408 10.7129C22.9456 10.3561 22.9414 9.99884 22.9408 9.64157C22.7852 9.63996 22.629 9.63835 22.4734 9.63674C22.4294 9.64157 22.3844 9.64103 22.3405 9.63567ZM14.469 3.23153C13.2869 3.31027 12.1207 3.64933 11.0968 4.25514C10.3139 4.71847 9.61612 5.33821 9.0915 6.08758C8.64787 6.72124 8.33394 7.44757 8.19736 8.20819C8.17618 8.32763 8.15924 8.44815 8.14654 8.56867C10.2546 8.566 12.3626 8.56439 14.4706 8.56385C14.4701 6.78659 14.468 5.00933 14.469 3.23153ZM15.5294 3.231V8.56385C17.6374 8.56439 19.7454 8.566 21.8535 8.56867C21.7958 8.03464 21.6544 7.51024 21.4368 7.0196C20.9614 5.94885 20.1271 5.05004 19.1806 4.42816C18.125 3.73504 16.8857 3.33705 15.6347 3.23849C15.5993 3.23582 15.5643 3.23367 15.5294 3.231Z" fill="black"/>
</svg>
