<svg width="30" height="30" viewBox="0 0 30 30" fill="none" xmlns="http://www.w3.org/2000/svg">
<path d="M24.983 27H4.01698C3.87756 27.0003 3.73957 26.9759 3.61162 26.9284C3.48366 26.8808 3.3685 26.8112 3.2733 26.7237C3.17811 26.6363 3.10493 26.5329 3.05833 26.4201C3.01174 26.3073 2.99273 26.1875 3.00249 26.0681L4.35514 9.81C4.37314 9.58973 4.48792 9.38356 4.67626 9.23318C4.86459 9.08281 5.11243 8.99946 5.36962 9H23.6304C23.8876 8.99946 24.1354 9.08281 24.3237 9.23318C24.5121 9.38356 24.6269 9.58973 24.6449 9.81L25.9975 26.0681C26.0073 26.1875 25.9883 26.3073 25.9417 26.4201C25.8951 26.5329 25.8219 26.6363 25.7267 26.7237C25.6315 26.8112 25.5163 26.8808 25.3884 26.9284C25.2604 26.9759 25.1224 27.0003 24.983 27ZM5.10586 25.2581H23.8941L22.6869 10.7419H6.3131L5.10586 25.2581Z" fill="white"/>
<path d="M19.0294 8C18.772 8 18.5251 7.90518 18.3431 7.7364C18.1611 7.56761 18.0588 7.3387 18.0588 7.1C18.0588 6.22479 17.6839 5.38542 17.0165 4.76655C16.3491 4.14768 15.4439 3.8 14.5 3.8C13.5561 3.8 12.6509 4.14768 11.9835 4.76655C11.3161 5.38542 10.9412 6.22479 10.9412 7.1C10.9412 7.3387 10.8389 7.56761 10.6569 7.7364C10.4749 7.90518 10.228 8 9.97059 8C9.71317 8 9.4663 7.90518 9.28428 7.7364C9.10226 7.56761 9 7.3387 9 7.1C9 5.7474 9.57946 4.45019 10.6109 3.49376C11.6424 2.53732 13.0413 2 14.5 2C15.9587 2 17.3576 2.53732 18.3891 3.49376C19.4205 4.45019 20 5.7474 20 7.1C20 7.3387 19.8977 7.56761 19.7157 7.7364C19.5337 7.90518 19.2868 8 19.0294 8Z" fill="white"/>
<path d="M10 15C9.73478 15 9.48043 14.9052 9.29289 14.7364C9.10536 14.5676 9 14.3387 9 14.1V6.9C9 6.66131 9.10536 6.43239 9.29289 6.2636C9.48043 6.09482 9.73478 6 10 6C10.2652 6 10.5196 6.09482 10.7071 6.2636C10.8946 6.43239 11 6.66131 11 6.9V14.1C11 14.3387 10.8946 14.5676 10.7071 14.7364C10.5196 14.9052 10.2652 15 10 15Z" fill="white"/>
<path d="M19 15C18.7348 15 18.4804 14.9052 18.2929 14.7364C18.1054 14.5676 18 14.3387 18 14.1V6.9C18 6.66131 18.1054 6.43239 18.2929 6.2636C18.4804 6.09482 18.7348 6 19 6C19.2652 6 19.5196 6.09482 19.7071 6.2636C19.8946 6.43239 20 6.66131 20 6.9V14.1C20 14.3387 19.8946 14.5676 19.7071 14.7364C19.5196 14.9052 19.2652 15 19 15Z" fill="white"/>
<circle cx="27" cy="3" r="3" fill="#FED73A"/>
</svg>
