<svg width="30" height="30" viewBox="0 0 30 30" fill="none" xmlns="http://www.w3.org/2000/svg">
<g clip-path="url(#clip0)">
<path d="M29.9423 20.1923C28.6154 9.86539 20.1346 1.38461 9.86539 0.0576918C8.19231 -0.288462 6.92308 0.807692 6.75 2.25C6.69231 2.88461 6.86539 3.51923 7.21154 3.98077L-4.26546e-07 29.1923C-0.0576928 29.4231 -4.30271e-07 29.6538 0.173077 29.8269C0.346154 30 0.576923 30.0577 0.807692 30L26.0192 22.8462C26.5385 23.1923 27.1154 23.3654 27.75 23.3077C29.1346 23.1346 30.2308 21.8654 29.9423 20.1923ZM6.8077 9.86538C7.5 10.2115 7.90385 10.9038 7.90385 11.6538C7.90385 12.75 6.98077 13.6731 5.88462 13.6731C5.82693 13.6731 5.76923 13.6731 5.71154 13.6731L6.8077 9.86538ZM5.36539 14.8846C5.53847 14.8846 5.71154 14.9423 5.88462 14.9423C7.67308 14.9423 9.17308 13.4423 9.17308 11.6538C9.17308 10.3269 8.36539 9.11538 7.15385 8.65385L8.25 4.84615C8.48077 4.96154 8.59616 5.01923 8.94231 5.01923C17.25 6 24.0577 12.75 24.9808 21.0577C24.9808 21.2885 25.0962 21.5192 25.1539 21.75L23.25 22.2692C22.7308 20.5385 21.0577 19.2692 19.2115 19.2692C16.8462 19.2692 14.9423 21.1731 14.9423 23.5385C14.9423 23.8846 15 24.2308 15.0577 24.5769L1.55769 28.4423L5.36539 14.8846ZM16.3269 24.2885C16.2692 24.0577 16.2115 23.8269 16.2115 23.5962C16.2115 21.9231 17.5385 20.5962 19.2115 20.5962C20.5385 20.5962 21.6346 21.4615 22.0385 22.6731L16.3269 24.2885ZM27.6346 22.0385C26.8846 22.0962 26.3077 21.5769 26.25 20.9423C25.2116 12.0577 18 4.78846 9.11539 3.80769C8.42308 3.75 7.90385 3.11538 8.01924 2.42308C8.07693 1.78846 8.65385 1.15385 9.69231 1.38461C19.5 2.65385 27.4616 10.6731 28.7308 20.4808C28.9039 21.4038 28.2692 21.9808 27.6346 22.0385Z" fill="black"/>
<path d="M6.23077 20.5385C4.78846 20.5385 3.69231 21.6923 3.69231 23.0769C3.69231 24.5192 4.84615 25.6154 6.23077 25.6154C7.61538 25.6154 8.76923 24.4615 8.76923 23.0769C8.82692 21.6923 7.67308 20.5385 6.23077 20.5385ZM6.23077 24.4039C5.48077 24.4039 4.90385 23.8269 4.90385 23.0769C4.90385 22.3269 5.48077 21.75 6.23077 21.75C6.98077 21.75 7.55769 22.3269 7.55769 23.0769C7.55769 23.8269 6.98077 24.4039 6.23077 24.4039Z" fill="black"/>
<path d="M19.2115 16.3269C20.3077 16.3269 21.2308 15.4039 21.2308 14.3077C21.2308 13.2115 20.3077 12.2885 19.2115 12.2885C18.1154 12.2885 17.1923 13.2115 17.1923 14.3077C17.1923 15.4039 18.1154 16.3269 19.2115 16.3269ZM19.2115 13.5577C19.6154 13.5577 19.9615 13.9039 19.9615 14.3077C19.9615 14.7115 19.6154 15.0577 19.2115 15.0577C18.8077 15.0577 18.4615 14.7115 18.4615 14.3077C18.4615 13.9039 18.8077 13.5577 19.2115 13.5577Z" fill="black"/>
<path d="M12.6346 12.3462C11.0769 12.3462 9.80769 13.6154 9.80769 15.1731C9.80769 16.7308 11.0769 18 12.6346 18C14.1923 18 15.4615 16.7308 15.4615 15.1731C15.4615 13.6154 14.1923 12.3462 12.6346 12.3462ZM12.6346 16.7885C11.7692 16.7885 11.0192 16.0962 11.0192 15.1731C11.0192 14.3077 11.7115 13.5577 12.6346 13.5577C13.5577 13.5577 14.25 14.25 14.25 15.1731C14.25 16.0385 13.5 16.7885 12.6346 16.7885Z" fill="black"/>
<path d="M12.6346 8.76923C13.3846 8.76923 14.0192 9.40384 14.0192 10.1538C14.0192 10.5 14.3077 10.7885 14.6538 10.7885C15 10.7885 15.2885 10.5 15.2885 10.1538C15.2885 8.71154 14.1346 7.5 12.6346 7.5C12.2885 7.5 12 7.78846 12 8.13461C12 8.48077 12.2885 8.76923 12.6346 8.76923Z" fill="black"/>
<path d="M11.1346 19.5L9.92307 20.8269C9.69231 21.0577 9.69231 21.4615 9.98077 21.6923C10.2115 21.9231 10.6154 21.9231 10.8461 21.6346L12.0577 20.3077C12.2885 20.0769 12.2885 19.6731 12 19.4423C11.7692 19.2692 11.3654 19.2692 11.1346 19.5Z" fill="black"/>
</g>
<defs>
<clipPath id="clip0">
<rect width="30" height="30" fill="white"/>
</clipPath>
</defs>
</svg>
