<svg width="30" height="30" viewBox="0 0 30 30" fill="none" xmlns="http://www.w3.org/2000/svg">
<g clip-path="url(#clip0)">
<path fill-rule="evenodd" clip-rule="evenodd" d="M0 15V15.8384C0 16.2529 0.0357056 17.1192 0.2742 18.2655C0.512695 19.4117 0.629654 20.5108 2.08191 22.7982C3.53416 25.0857 5.59204 26.6732 8.20312 27.5214V29.4141C8.20312 29.7377 8.46542 30 8.78906 30H21.2109C21.5346 30 21.7969 29.7377 21.7969 29.4141V27.5196C26.7188 25.8806 30 20.9592 30 15.8384V15C30 14.6764 29.7377 14.4141 29.4141 14.4141H28.4541C28.1541 10.4867 24.8623 7.38281 20.8594 7.38281C20.2631 7.38281 19.6747 7.45171 19.1011 7.58789C19.0853 3.40118 15.6747 0 11.4844 0C11.1607 0 10.8984 0.262299 10.8984 0.585938V5.18646C10.5187 5.0885 10.1271 5.03906 9.72656 5.03906C7.46086 5.03906 5.54855 6.64078 5.12581 8.82523C2.98599 9.53682 1.52344 11.5407 1.52344 13.8281C1.52344 14.024 1.53488 14.2197 1.5564 14.4141H0.585938C0.262299 14.4141 0 14.6764 0 15ZM1.17188 15.8384C1.17188 16.2078 1.20438 16.9833 1.42159 18.0267C1.63879 19.0702 1.7244 20.048 3.07137 22.1702C4.41833 24.2924 6.35078 25.743 8.81516 26.4844H21.1842C25.6192 25.1374 28.8281 20.6781 28.8281 15.8384V15.5859H1.17188V15.8384ZM9.375 27.6562V28.8281H20.625V27.6562H9.375ZM17.9887 14.4141C18.2609 13.0783 19.4447 12.0703 20.8594 12.0703C22.2741 12.0703 23.4579 13.0783 23.73 14.4141H24.9184C24.6332 12.4292 22.9221 10.8984 20.8594 10.8984C18.7967 10.8984 17.0856 12.4292 16.8004 14.4141H17.9887ZM19.2023 14.4141H22.5165C22.2746 13.732 21.6232 13.2422 20.8594 13.2422C20.0956 13.2422 19.4442 13.732 19.2023 14.4141ZM26.1001 14.4141H27.2777C26.9808 11.1337 24.2157 8.55469 20.8594 8.55469C17.5014 8.55469 14.7425 11.1326 14.442 14.4141H15.6187C15.9112 11.781 18.1499 9.72656 20.8594 9.72656C23.5691 9.72656 25.8076 11.781 26.1001 14.4141ZM17.9297 7.97058V7.61719C17.9297 4.26064 15.3509 1.49506 12.0703 1.1982V14.4141H13.2651C13.4848 11.5732 15.2898 9.07288 17.9297 7.97058ZM5.79208 9.85062C3.96881 10.3098 2.69531 11.9453 2.69531 13.8281C2.69531 14.0245 2.70973 14.2204 2.73743 14.4141H7.20543L5.29999 13.1438C5.03082 12.9643 4.95804 12.6004 5.13748 12.3312C5.31693 12.0621 5.68085 11.9893 5.95001 12.1687L8.55469 13.9053V9.14062C8.55469 8.81699 8.81699 8.55469 9.14062 8.55469C9.46426 8.55469 9.72656 8.81699 9.72656 9.14062V14.4141H10.8984V6.41144C10.5242 6.27869 10.1315 6.21094 9.72656 6.21094C7.92641 6.21094 6.42403 7.55836 6.23154 9.34525C6.20522 9.589 6.02989 9.79065 5.79208 9.85062Z" fill="black"/>
</g>
<defs>
<clipPath id="clip0">
<rect width="30" height="30" fill="white"/>
</clipPath>
</defs>
</svg>
