<svg width="30" height="30" viewBox="0 0 30 30" fill="none" xmlns="http://www.w3.org/2000/svg">
<g clip-path="url(#clip0)">
<path d="M30 11.1346C30 10.7884 29.7115 10.5577 29.4231 10.5577H21.1731L26.6538 5.99996C28.0385 4.9038 28.1538 2.82688 26.9423 1.55765C25.6731 0.288418 23.5385 0.461495 22.5 1.78842L15.1154 10.5577H0.576921C0.230767 10.5577 -1.90735e-06 10.8461 -1.90735e-06 11.1346C-1.90735e-06 17.3077 3.80769 22.673 9.17307 24.9807L7.78846 26.3653C7.26923 26.8846 7.15384 27.6346 7.38461 28.2692C7.67308 28.9615 8.30769 29.3653 9 29.3653H21C21.75 29.3653 22.3269 28.9615 22.6154 28.2692C22.9038 27.5769 22.7308 26.8846 22.2115 26.3653L20.8269 24.9807C26.1923 22.673 30 17.3653 30 11.1346ZM23.3654 2.48073C24.0577 1.61534 25.3269 1.55765 26.0769 2.30765C26.8269 3.05765 26.7692 4.32688 25.9038 5.01919L19.3846 10.5H16.6154L23.3654 2.48073ZM28.8462 11.7115C28.7885 12.5192 28.7308 13.2692 28.5577 14.0192H1.5C1.32692 13.2692 1.21154 12.4615 1.21154 11.7115H28.8462ZM19.6154 25.3846L21.4038 27.173C21.6346 27.4038 21.5769 27.75 21.5192 27.8077C21.4615 27.8653 21.3462 28.1538 21 28.1538H9C8.65384 28.1538 8.48077 27.8653 8.48077 27.8077C8.42307 27.75 8.36538 27.4038 8.59615 27.173L10.3846 25.3846C11.8269 25.8461 13.3846 26.1346 15 26.1346C16.6154 26.1346 18.1731 25.9038 19.6154 25.3846ZM15 24.9807C8.76923 24.9807 3.51923 20.8846 1.78846 15.2307H28.2115C26.4808 20.8846 21.2308 24.9807 15 24.9807Z" fill="black"/>
<path d="M5.59615 8.99995C5.82692 9.23072 6.17308 9.23072 6.40385 8.99995C6.63462 8.76919 6.63462 8.42303 6.40385 8.19226C5.59615 7.38457 5.59615 6.11534 6.40385 5.36534C6.98077 4.78842 7.32692 3.98072 7.32692 3.11534C7.32692 2.24995 6.98077 1.44226 6.40385 0.865338C6.17308 0.634568 5.82692 0.634568 5.59615 0.865338C5.36538 1.09611 5.36538 1.44226 5.59615 1.67303C6 2.07688 6.17308 2.53841 6.17308 3.11534C6.17308 3.69226 5.94231 4.1538 5.59615 4.55765C4.38461 5.71149 4.38461 7.73072 5.59615 8.99995Z" fill="black"/>
<path d="M8.59614 6.74997C8.59614 7.61535 8.94229 8.42304 9.51921 8.99997C9.74998 9.23074 10.0961 9.23074 10.3269 8.99997C10.5577 8.7692 10.5577 8.42304 10.3269 8.19227C9.92306 7.78843 9.74998 7.32689 9.74998 6.74997C9.74998 6.23074 9.98075 5.71151 10.3269 5.30766C11.5961 4.03843 11.5961 2.0192 10.3269 0.807659C10.0961 0.57689 9.74998 0.57689 9.51921 0.807659C9.28844 1.03843 9.28844 1.38458 9.51921 1.61535C10.3269 2.42304 10.3269 3.69227 9.51921 4.44227C8.94229 5.07689 8.59614 5.88458 8.59614 6.74997Z" fill="black"/>
</g>
<defs>
<clipPath id="clip0">
<rect width="30" height="30" fill="white"/>
</clipPath>
</defs>
</svg>
