<svg width="30" height="30" viewBox="0 0 30 30" fill="none" xmlns="http://www.w3.org/2000/svg">
<path d="M10.5469 16.1719C10.5469 14.9641 8.72452 14.4141 7.03125 14.4141C5.33798 14.4141 3.51562 14.9641 3.51562 16.1719C3.51562 17.3797 5.33798 17.9297 7.03125 17.9297C8.72452 17.9297 10.5469 17.3797 10.5469 16.1719ZM4.70215 16.1719C4.85275 15.9803 5.65567 15.5859 7.03125 15.5859C8.40683 15.5859 9.20975 15.9803 9.36035 16.1719C9.20975 16.3634 8.40683 16.7578 7.03125 16.7578C5.65567 16.7578 4.85275 16.3634 4.70215 16.1719Z" fill="black"/>
<path d="M22.9688 12.0703C22.6536 12.0703 22.3405 12.0836 22.0312 12.1069V7.96875C22.0312 5.66872 18.9427 3.86719 15 3.86719C11.0573 3.86719 7.96875 5.66872 7.96875 7.96875V12.1163C7.62657 12.0847 7.30957 12.0703 7.03125 12.0703C3.08853 12.0703 0 13.8718 0 16.1719V22.6172C0 23.643 0.792389 24.5682 2.23137 25.2221C3.52318 25.8094 5.22789 26.1328 7.03125 26.1328C8.83461 26.1328 10.5393 25.8094 11.8311 25.2221C13.2701 24.5682 14.0625 23.643 14.0625 22.6172V17.899C14.7215 17.9409 15.3067 17.9391 15.9375 17.8988V22.6172C15.9375 23.643 16.7299 24.5682 18.1689 25.2221C19.4607 25.8094 21.1654 26.1328 22.9688 26.1328C24.7721 26.1328 26.4768 25.8094 27.7686 25.2221C29.2076 24.5682 30 23.643 30 22.6172V16.1719C30 13.8718 26.9115 12.0703 22.9688 12.0703ZM28.8281 16.1719C28.8281 18.1732 25.1516 19.1016 22.9688 19.1016C20.7372 19.1016 17.1094 18.1467 17.1094 16.1719C17.1094 14.5042 19.8349 13.5592 21.5227 13.336C21.9907 13.2738 22.4773 13.2422 22.9688 13.2422C25.2003 13.2422 28.8281 14.1971 28.8281 16.1719ZM15 5.03906C17.2316 5.03906 20.8594 5.99396 20.8594 7.96875C20.8594 9.97009 17.1828 10.8984 15 10.8984C12.7684 10.8984 9.14062 9.94354 9.14062 7.96875C9.14062 5.96741 12.8174 5.03906 15 5.03906ZM11.3464 24.1553C10.2033 24.6748 8.67096 24.9609 7.03125 24.9609C5.39154 24.9609 3.85918 24.6748 2.71614 24.1553C1.74911 23.7156 1.17188 23.1406 1.17188 22.6172V18.4728C2.08237 19.2572 3.38699 19.7726 4.57855 20.0235C8 20.7438 9.9334 19.8165 10 19.5C10.0668 19.1832 8.5 19.5 4.82002 18.8768C3.0496 18.577 1.17188 17.5028 1.17188 16.1719C1.17188 14.1705 4.84863 13.2422 7.03125 13.2422C9.09737 13.2422 12.9066 14.1454 12.8906 16.195V16.2108C12.8657 17.4985 11.0261 18.5804 9.23813 18.8779C5.5 19.5 4.93088 19.1839 5 19.5C5.06958 19.8179 6 20.7859 9.48853 20.0226C10.6915 19.7594 11.9865 19.2412 12.8906 18.4689V22.6172C12.8906 23.1406 12.3134 23.7156 11.3464 24.1553ZM14.0625 16.7244V16.2566C14.1142 13.8938 11.4436 12.716 9.14062 12.2811V10.2654C10.3901 11.3615 12.5269 12.0703 15 12.0703C17.4731 12.0703 19.6099 11.3615 20.8594 10.2654V12.2541C18.5932 12.6606 15.9375 13.9467 15.9375 16.1719V16.7242C15.3152 16.767 14.6768 16.7667 14.0625 16.7244ZM27.2839 24.1553C26.1408 24.6748 24.6085 24.9609 22.9688 24.9609C21.329 24.9609 19.7967 24.6748 18.6536 24.1553C17.6868 23.7156 17.1094 23.1406 17.1094 22.6172V18.4685C18.3588 19.5646 20.4957 20.2734 22.9688 20.2734C25.4418 20.2734 27.5787 19.5646 28.8281 18.4685V22.6172C28.8281 23.1406 28.2507 23.7156 27.2839 24.1553Z" fill="black"/>
<path d="M19.4531 16.1719C19.4531 17.3797 21.2755 17.9297 22.9688 17.9297C24.662 17.9297 26.4844 17.3797 26.4844 16.1719C26.4844 14.9641 24.662 14.4141 22.9688 14.4141C21.2755 14.4141 19.4531 14.9641 19.4531 16.1719ZM22.9688 15.5859C24.3443 15.5859 25.1472 15.9803 25.2979 16.1719C25.1472 16.3634 24.3443 16.7578 22.9688 16.7578C21.5932 16.7578 20.7903 16.3634 20.6396 16.1719C20.7903 15.9803 21.5932 15.5859 22.9688 15.5859Z" fill="black"/>
<path d="M15 9.72656C16.6933 9.72656 18.5156 9.17656 18.5156 7.96875C18.5156 6.76094 16.6933 6.21094 15 6.21094C13.3067 6.21094 11.4844 6.76094 11.4844 7.96875C11.4844 9.17656 13.3067 9.72656 15 9.72656ZM15 7.38281C16.3756 7.38281 17.1785 7.77718 17.3291 7.96875C17.1785 8.16032 16.3756 8.55469 15 8.55469C13.6244 8.55469 12.8215 8.16032 12.6709 7.96875C12.8215 7.77718 13.6244 7.38281 15 7.38281Z" fill="black"/>
</svg>
